<mxfile host="app.diagrams.net" agent="Mozilla/5.0 (Windows NT 10.0; Win64; x64) AppleWebKit/537.36 (KHTML, like Gecko) Chrome/141.0.0.0 Safari/537.36 Edg/141.0.0.0" version="28.2.5">
  <diagram name="PÃ¡gina-1" id="IRHMoUYt9Ks3O9NO9F-Q">
    <mxGraphModel dx="974" dy="1186" grid="1" gridSize="10" guides="1" tooltips="1" connect="1" arrows="1" fold="1" page="1" pageScale="1" pageWidth="827" pageHeight="1169" math="0" shadow="0">
      <root>
        <mxCell id="0" />
        <mxCell id="1" parent="0" />
        <mxCell id="yTBQC41Mj1kL9p5l5KH8-46" style="edgeStyle=orthogonalEdgeStyle;rounded=0;orthogonalLoop=1;jettySize=auto;html=1;entryX=0.5;entryY=1;entryDx=0;entryDy=0;" parent="1" edge="1">
          <mxGeometry relative="1" as="geometry">
            <Array as="points">
              <mxPoint x="915" y="850" />
              <mxPoint x="300" y="850" />
            </Array>
            <mxPoint x="300" y="130" as="targetPoint" />
          </mxGeometry>
        </mxCell>
        <mxCell id="n0Cg8OXJ-iFq7vAQ-mr2-46" value="" style="edgeStyle=orthogonalEdgeStyle;rounded=0;orthogonalLoop=1;jettySize=auto;html=1;" edge="1" parent="1" source="n0Cg8OXJ-iFq7vAQ-mr2-1" target="n0Cg8OXJ-iFq7vAQ-mr2-45">
          <mxGeometry relative="1" as="geometry" />
        </mxCell>
        <mxCell id="n0Cg8OXJ-iFq7vAQ-mr2-1" value="i" style="ellipse;whiteSpace=wrap;html=1;" vertex="1" parent="1">
          <mxGeometry x="60" y="50" width="120" height="80" as="geometry" />
        </mxCell>
        <mxCell id="n0Cg8OXJ-iFq7vAQ-mr2-48" value="" style="edgeStyle=orthogonalEdgeStyle;rounded=0;orthogonalLoop=1;jettySize=auto;html=1;" edge="1" parent="1" source="n0Cg8OXJ-iFq7vAQ-mr2-45" target="n0Cg8OXJ-iFq7vAQ-mr2-47">
          <mxGeometry relative="1" as="geometry" />
        </mxCell>
        <mxCell id="n0Cg8OXJ-iFq7vAQ-mr2-45" value="N= 0&lt;div&gt;Soma= 0&lt;/div&gt;" style="whiteSpace=wrap;html=1;" vertex="1" parent="1">
          <mxGeometry x="260" y="60" width="120" height="60" as="geometry" />
        </mxCell>
        <mxCell id="n0Cg8OXJ-iFq7vAQ-mr2-50" value="" style="edgeStyle=orthogonalEdgeStyle;rounded=0;orthogonalLoop=1;jettySize=auto;html=1;" edge="1" parent="1" source="n0Cg8OXJ-iFq7vAQ-mr2-47" target="n0Cg8OXJ-iFq7vAQ-mr2-49">
          <mxGeometry relative="1" as="geometry" />
        </mxCell>
        <mxCell id="n0Cg8OXJ-iFq7vAQ-mr2-47" value="ler N" style="shape=parallelogram;perimeter=parallelogramPerimeter;whiteSpace=wrap;html=1;fixedSize=1;" vertex="1" parent="1">
          <mxGeometry x="460" y="60" width="120" height="60" as="geometry" />
        </mxCell>
        <mxCell id="n0Cg8OXJ-iFq7vAQ-mr2-53" value="" style="edgeStyle=orthogonalEdgeStyle;rounded=0;orthogonalLoop=1;jettySize=auto;html=1;" edge="1" parent="1" source="n0Cg8OXJ-iFq7vAQ-mr2-49" target="n0Cg8OXJ-iFq7vAQ-mr2-52">
          <mxGeometry relative="1" as="geometry" />
        </mxCell>
        <mxCell id="n0Cg8OXJ-iFq7vAQ-mr2-49" value="ler num" style="shape=parallelogram;perimeter=parallelogramPerimeter;whiteSpace=wrap;html=1;fixedSize=1;" vertex="1" parent="1">
          <mxGeometry x="460" y="200" width="120" height="60" as="geometry" />
        </mxCell>
        <mxCell id="n0Cg8OXJ-iFq7vAQ-mr2-55" value="" style="edgeStyle=orthogonalEdgeStyle;rounded=0;orthogonalLoop=1;jettySize=auto;html=1;" edge="1" parent="1" source="n0Cg8OXJ-iFq7vAQ-mr2-52" target="n0Cg8OXJ-iFq7vAQ-mr2-54">
          <mxGeometry relative="1" as="geometry" />
        </mxCell>
        <mxCell id="n0Cg8OXJ-iFq7vAQ-mr2-52" value="soma = soma + num&lt;div&gt;N = N-1&lt;/div&gt;" style="whiteSpace=wrap;html=1;" vertex="1" parent="1">
          <mxGeometry x="460" y="340" width="120" height="60" as="geometry" />
        </mxCell>
        <mxCell id="n0Cg8OXJ-iFq7vAQ-mr2-56" style="edgeStyle=orthogonalEdgeStyle;rounded=0;orthogonalLoop=1;jettySize=auto;html=1;entryX=1;entryY=0.5;entryDx=0;entryDy=0;" edge="1" parent="1" source="n0Cg8OXJ-iFq7vAQ-mr2-54" target="n0Cg8OXJ-iFq7vAQ-mr2-49">
          <mxGeometry relative="1" as="geometry">
            <Array as="points">
              <mxPoint x="720" y="240" />
              <mxPoint x="570" y="240" />
            </Array>
          </mxGeometry>
        </mxCell>
        <mxCell id="n0Cg8OXJ-iFq7vAQ-mr2-57" value="nao" style="edgeLabel;html=1;align=center;verticalAlign=middle;resizable=0;points=[];" vertex="1" connectable="0" parent="n0Cg8OXJ-iFq7vAQ-mr2-56">
          <mxGeometry x="0.4922" y="2" relative="1" as="geometry">
            <mxPoint as="offset" />
          </mxGeometry>
        </mxCell>
        <mxCell id="n0Cg8OXJ-iFq7vAQ-mr2-61" value="" style="edgeStyle=orthogonalEdgeStyle;rounded=0;orthogonalLoop=1;jettySize=auto;html=1;" edge="1" parent="1" source="n0Cg8OXJ-iFq7vAQ-mr2-54" target="n0Cg8OXJ-iFq7vAQ-mr2-60">
          <mxGeometry relative="1" as="geometry" />
        </mxCell>
        <mxCell id="n0Cg8OXJ-iFq7vAQ-mr2-54" value="N = 0" style="rhombus;whiteSpace=wrap;html=1;" vertex="1" parent="1">
          <mxGeometry x="680" y="330" width="80" height="80" as="geometry" />
        </mxCell>
        <mxCell id="n0Cg8OXJ-iFq7vAQ-mr2-63" value="" style="edgeStyle=orthogonalEdgeStyle;rounded=0;orthogonalLoop=1;jettySize=auto;html=1;" edge="1" parent="1" source="n0Cg8OXJ-iFq7vAQ-mr2-60" target="n0Cg8OXJ-iFq7vAQ-mr2-62">
          <mxGeometry relative="1" as="geometry" />
        </mxCell>
        <mxCell id="n0Cg8OXJ-iFq7vAQ-mr2-60" value="escrever soma" style="shape=parallelogram;perimeter=parallelogramPerimeter;whiteSpace=wrap;html=1;fixedSize=1;" vertex="1" parent="1">
          <mxGeometry x="660" y="500" width="120" height="60" as="geometry" />
        </mxCell>
        <mxCell id="n0Cg8OXJ-iFq7vAQ-mr2-62" value="f" style="ellipse;whiteSpace=wrap;html=1;" vertex="1" parent="1">
          <mxGeometry x="680" y="640" width="80" height="80" as="geometry" />
        </mxCell>
      </root>
    </mxGraphModel>
  </diagram>
</mxfile>
